{
	"asset":{
		"generator":"Khronos glTF Blender I/O v4.0.44",
		"version":"2.0"
	},
	"scene":0,
	"scenes":[
		{
			"name":"Scene",
			"nodes":[
				0
			]
		}
	],
	"nodes":[
		{
			"mesh":0,
			"name":"Circle"
		}
	],
	"materials":[
		{
			"doubleSided":true,
			"name":"gold",
			"pbrMetallicRoughness":{
				"baseColorFactor":[
					1,
					0.13980036973953247,
					0.13980036973953247,
					1
				],
				"roughnessFactor":0.1363636553287506
			}
		}
	],
	"meshes":[
		{
			"name":"Circle",
			"primitives":[
				{
					"attributes":{
						"POSITION":0,
						"NORMAL":1,
						"TEXCOORD_0":2
					},
					"indices":3,
					"material":0
				}
			]
		}
	],
	"accessors":[
		{
			"bufferView":0,
			"componentType":5126,
			"count":3923,
			"max":[
				0.5,
				0.005000002216547728,
				0.5
			],
			"min":[
				-0.5,
				-0.029999999329447746,
				-0.5
			],
			"type":"VEC3"
		},
		{
			"bufferView":1,
			"componentType":5126,
			"count":3923,
			"type":"VEC3"
		},
		{
			"bufferView":2,
			"componentType":5126,
			"count":3923,
			"type":"VEC2"
		},
		{
			"bufferView":3,
			"componentType":5123,
			"count":11652,
			"type":"SCALAR"
		}
	],
	"bufferViews":[
		{
			"buffer":0,
			"byteLength":47076,
			"byteOffset":0,
			"target":34962
		},
		{
			"buffer":0,
			"byteLength":47076,
			"byteOffset":47076,
			"target":34962
		},
		{
			"buffer":0,
			"byteLength":31384,
			"byteOffset":94152,
			"target":34962
		},
		{
			"buffer":0,
			"byteLength":23304,
			"byteOffset":125536,
			"target":34963
		}
	],
	"buffers":[
		{
			"byteLength":148840,
			"uri":"4-coin.bin"
		}
	]
}
